# xmcd CD database file
#
# Track frame offsets:
#	183
#	14358
#	28758
#	41133
#	54058
#	67233
#	79083
#	91158
#	103758
#	116283
#	126783
#	139083
#	151683
#	165183
#	176583
#	191508
#
# Disc length: 2737 seconds
#
# Revision: 0
# Processed by: cddbd v1.5.2PL0 Copyright (c) Steve Scherf et al.
# Submitted via: CDex 1.79
#
DISCID=c40aaf10
DTITLE=Budyy and Ella Johnson - Back Beat The Rhythm of The Blues Vol 3
DYEAR=1900
DGENRE=Blues
TTITLE0=Jit Jit
TTITLE1=That's How I Feel About You
TTITLE2=A-12
TTITLE3=Ain't Cha Got Me
TTITLE4=Shut Your Big Mouth
TTITLE5=I'll Dearly Love You
TTITLE6=Kool Kitty
TTITLE7=I've Surrendered
TTITLE8=Slide's Mambo
TTITLE9=Don't Shout At Me Daddy
TTITLE10=No Ain't Gonna Let You Go
TTITLE11=Don't Turn Your Back On Me
TTITLE12=They All Say I'm The Biggest Fool
TTITLE13=I Cry
TTITLE14=Baby Don't You Cry
TTITLE15=Far Cry
EXTD=
EXTT0=
EXTT1=
EXTT2=
EXTT3=
EXTT4=
EXTT5=
EXTT6=
EXTT7=
EXTT8=
EXTT9=
EXTT10=
EXTT11=
EXTT12=
EXTT13=
EXTT14=
EXTT15=
PLAYORDER=
